<mxfile host="app.diagrams.net" modified="2024-06-28T14:33:34.061Z" agent="Mozilla/5.0 (Macintosh; Intel Mac OS X 10_15_7) AppleWebKit/537.36 (KHTML, like Gecko) Chrome/126.0.0.0 Safari/537.36" version="22.1.17" etag="qDra9o5y-CQyXwl10DLt" type="github">
  <diagram name="Page-1" id="jdFe0M0U-XJEu4nGJkJv">
    <mxGraphModel>
      <root>
        <mxCell id="0" />
        <mxCell id="1" parent="0" />
      </root>
    </mxGraphModel>
  </diagram>
</mxfile>
